<?xml version="1.0" encoding="UTF-8"?>
<svg width="90px" height="29px" viewBox="0 0 90 29" version="1.1" xmlns="http://www.w3.org/2000/svg" xmlns:xlink="http://www.w3.org/1999/xlink">
    <!-- Generator: Sketch 51.2 (57519) - http://www.bohemiancoding.com/sketch -->
    <title>Group</title>
    <desc>Created with Sketch.</desc>
    <defs></defs>
    <g id="Page-1" stroke="none" stroke-width="1" fill="none" fill-rule="evenodd">
        <g id="Group" fill-rule="nonzero">
            <path d="M89.4899779,24.3216725 C88.6812868,26.6140575 86.4774633,28.2602048 83.8889045,28.2602048 L83.8347428,28.2602048 C82.1519928,28.2602048 80.6354634,27.5658232 79.5559634,26.4511093 C78.4745958,27.5658232 76.9580664,28.2602048 75.2771841,28.2602048 L75.2230224,28.2602048 C73.7438459,28.2602048 72.3916695,27.7232164 71.3532577,26.834408 L71.3532577,27.2862189 C71.3177724,27.7361782 70.944243,28.0898499 70.4829342,28.0898499 L66.5123167,28.0898499 C66.0267284,28.0898499 65.6345226,27.7009962 65.6345226,27.2177066 L65.6345226,5.84001225 C65.6345226,5.35672267 66.0267284,4.96786898 66.5123167,4.96786898 L70.4829342,4.96786898 C70.9255666,4.96786898 71.2897577,5.29561709 71.3476548,5.71965278 L71.3457872,21.0664116 C71.3457872,21.1201105 71.3476548,21.1701059 71.3532577,21.2201014 C71.4167577,21.9052246 71.9228901,22.4681366 72.722243,22.5385006 L72.8697871,22.5385006 L73.2862724,22.5385006 L73.4543606,22.5385006 C73.7886695,22.5088736 74.0706842,22.3922175 74.2929341,22.2163075 C74.6384488,21.9441099 74.8308165,21.5256293 74.8308165,21.0664116 L74.8457577,5.79557183 C74.8457577,5.31228225 75.2398312,4.92157688 75.7235518,4.92157688 L79.6941693,4.92157688 C80.1629487,4.92157688 80.5439487,5.29191372 80.5663605,5.75298309 L80.5644928,21.0867801 C80.5626252,21.5904382 80.7979487,22.0459526 81.2106987,22.3162985 C81.4142722,22.4459164 81.658934,22.5329455 81.9409487,22.5588691 L82.0884928,22.5588691 L82.5049781,22.5588691 L82.6730663,22.5588691 C83.5321839,22.4848017 84.0513898,21.8385639 84.0495222,21.0867801 L84.0644633,5.83630888 C84.0644633,5.3530193 84.4585369,4.96416561 84.9422574,4.96416561 L88.912875,4.96416561 C89.3965956,4.96416561 89.7906691,5.3530193 89.7906691,5.83630888 L89.7906691,22.2385277 C89.7906691,23.356945 89.6636691,23.8328278 89.4899779,24.3216725" id="path462" fill="#54C1F0" transform="translate(77.712596, 16.590891) scale(-1, 1) rotate(-180.000000) translate(-77.712596, -16.590891) "></path>
            <path d="M62.6096815,23.9255972 L60.3386227,23.9255972 L60.3386227,27.5734151 C60.3386227,27.5771185 60.3386227,27.5808219 60.3386227,27.5845252 C60.3386227,28.0233744 59.9800345,28.3788978 59.5374021,28.3788978 C59.485108,28.3788978 59.4346815,28.371491 59.3861227,28.3622326 C56.8685345,27.6771095 57.3727992,24.220015 52.7765199,23.9255972 L52.6737993,23.9255972 L52.3301523,23.9255972 C52.262917,23.9255972 52.199417,23.9163388 52.1377846,23.903377 L52.1340493,23.903377 L52.1377846,23.9015253 C51.7455788,23.8144962 51.4504905,23.4700829 51.4504905,23.0553056 L51.4504905,19.118625 C51.4504905,18.6390388 51.8445641,18.2483334 52.3301523,18.2483334 L54.7263434,18.2483334 L54.7226081,1.55540013 C54.7226081,1.07951728 55.1110787,0.694366965 55.591064,0.694366965 L59.516858,0.694366965 C59.9949756,0.694366965 60.3834462,1.07951728 60.3834462,1.55540013 L60.3853139,18.2483334 L62.6096815,18.2483334 C63.093402,18.2483334 63.4874756,18.6390388 63.4874756,19.118625 L63.4874756,23.0553056 C63.4874756,23.5348919 63.093402,23.9255972 62.6096815,23.9255972" id="path466" fill="#54C1F0" transform="translate(57.468983, 14.536632) scale(-1, 1) rotate(-180.000000) translate(-57.468983, -14.536632) "></path>
            <path d="M48.3238627,28.2881653 L44.3532451,28.2881653 C43.8695245,28.2881653 43.4773186,27.8974599 43.4773186,27.4178737 L43.4773186,19.2778698 C43.4679804,18.7742117 43.0570981,18.3705446 42.5472304,18.3705446 L40.8850246,18.3705446 C40.369554,18.3705446 39.9530687,18.7816185 39.9530687,19.2926833 L39.9381276,27.4178737 C39.9381276,27.8974599 39.544054,28.2881653 39.0603335,28.2881653 L35.0897159,28.2881653 C34.6041277,28.2881653 34.2119218,27.8974599 34.2119218,27.4178737 L34.2119218,18.4964591 C34.2119218,15.107877 36.6492012,12.691429 40.0688628,12.691429 C40.0688628,12.691429 42.6350098,12.691429 42.713451,12.6766156 C43.1766275,12.6247684 43.5370834,12.2396181 43.5370834,11.7655869 C43.5370834,11.2971108 43.1840981,10.9138122 42.7265245,10.85641 C42.7041128,10.8527066 42.6835687,10.8471516 42.6592893,10.8434482 L36.8527747,10.8230797 C36.3671865,10.8230797 35.9749806,10.4323743 35.9749806,9.95278808 L35.9749806,6.0179591 C35.9749806,5.53652121 36.3671865,5.14766752 36.8527747,5.14766752 L43.3447157,5.14766752 C46.766245,5.14766752 49.2016568,7.56226375 49.2016568,10.9526976 L49.2016568,27.4178737 C49.2016568,27.8974599 48.8094509,28.2881653 48.3238627,28.2881653" id="path470" fill="#233266" transform="translate(41.706789, 16.717916) scale(-1, 1) rotate(-180.000000) translate(-41.706789, -16.717916) "></path>
            <path d="M9.8910488,21.0490058 L9.8910488,19.212135 L9.8910488,18.6195961 C9.8910488,18.1103829 9.47456352,17.6956057 8.96096059,17.6956057 L6.44150476,17.693754 L6.44150476,22.5618318 L8.96096059,22.5618318 C9.47456352,22.5618318 9.8910488,22.1507579 9.8910488,21.639693 L9.8910488,21.0490058 Z M10.2402988,28.2631675 L1.5613431,28.2631675 C1.08509311,28.2631675 0.700357828,27.8798689 0.700357828,27.4095411 L0.700357828,23.5524829 C0.700357828,23.5450761 0.702225475,23.5376694 0.702225475,23.5302626 C0.702225475,23.5117458 0.700357828,23.493229 0.700357828,23.4765638 L0.700357828,11.1054615 L0.700357828,6.01888495 C0.700357828,5.54485379 1.05894606,5.15785178 1.50344605,5.14674168 L1.57815193,5.14674168 L5.54876949,5.14674168 C6.03249006,5.14674168 6.42656358,5.53559536 6.42656358,6.01703326 L6.44150476,11.999825 L10.2402988,11.999825 C13.419034,11.999825 15.6340634,14.1866641 15.6340634,17.3511924 L15.6340634,22.9043934 C15.6340634,26.0689217 13.419034,28.2631675 10.2402988,28.2631675 Z" id="path474" fill="#233266" transform="translate(8.167211, 16.704955) scale(-1, 1) rotate(-180.000000) translate(-8.167211, -16.704955) "></path>
            <path d="M26.3657499,11.7465146 L26.3657499,11.1317554 C26.3657499,11.0817599 26.3582793,11.0336162 26.3508087,10.9873241 C26.3414705,10.9428836 26.328397,10.9002949 26.3134558,10.8595578 C26.1901911,10.5151446 25.8428087,10.2651672 25.4300588,10.2651672 L23.7771911,10.2651672 C23.2617206,10.2651672 22.8415,10.6540209 22.8415,11.1317554 L22.8415,11.8742808 C22.8415,11.8835392 22.8396323,11.8927976 22.8396323,11.9020561 L22.8415,13.8778031 L22.8415,13.8815065 L22.8415,14.1000052 L22.8415,14.4962657 L22.8433676,14.5018207 C22.8452353,14.9777036 23.2617206,15.3628539 23.7771911,15.3628539 L25.4300588,15.3628539 C25.947397,15.3628539 26.3657499,14.9758519 26.3657499,14.4962657 L26.3657499,11.7465146 Z M25.7344852,28.1802121 L20.2249265,28.1802121 C19.7374706,28.1802121 19.3433971,27.8135786 19.3433971,27.3636193 L19.3433971,25.8322765 C19.3433971,25.823018 19.3452648,25.8119079 19.3452648,25.8026495 C19.3452648,25.7915394 19.3433971,25.7804293 19.3433971,25.7693192 L19.3433971,23.671361 C19.3433971,23.1954781 19.7617501,22.8066244 20.2772206,22.8066244 L25.5234411,22.8066244 C25.9380587,22.7418155 26.2667646,22.4418427 26.3134558,21.9733665 L26.3134558,21.4660051 C26.2667646,21.0197492 25.941794,20.6938527 25.5458529,20.6568191 L22.9479559,20.6568191 C19.4928089,20.6568191 17.0312501,18.3810992 17.0312501,15.1850922 L17.0312501,10.7243849 L17.0312501,10.6077288 C17.0312501,7.43023866 19.1472942,5.16933223 22.5781618,5.16933223 L29.777941,5.16933223 C31.0703527,5.16933223 32.1181027,6.13961476 32.1181027,7.33395108 L32.1181027,22.2714877 C32.1181027,25.893382 30.2355145,28.1802121 25.7344852,28.1802121 Z" id="path478" fill="#233266" transform="translate(24.574676, 16.674772) scale(-1, 1) rotate(-180.000000) translate(-24.574676, -16.674772) "></path>
        </g>
    </g>
</svg>