<?xml version="1.0" encoding="UTF-8"?>
<svg width="108px" height="25px" viewBox="0 0 108 25" version="1.1" xmlns="http://www.w3.org/2000/svg" xmlns:xlink="http://www.w3.org/1999/xlink">
    <!-- Generator: Sketch 51.2 (57519) - http://www.bohemiancoding.com/sketch -->
    <title>Group 4</title>
    <desc>Created with Sketch.</desc>
    <defs></defs>
    <g id="Page-1" stroke="none" stroke-width="1" fill="none" fill-rule="evenodd">
        <g id="Group-4">
            <path d="M10.4455102,15.754717 C10.3112245,15.8207547 10.1673469,15.8584906 10.0138776,15.8584906 C9.65897959,15.8584906 9.34244898,15.6603774 9.17938776,15.3773585 L9.1122449,15.245283 L6.50326531,9.60377358 C6.4744898,9.53773585 6.45530612,9.47169811 6.45530612,9.40566038 C6.45530612,9.14150943 6.66632653,8.93396226 6.93489796,8.93396226 C7.04040816,8.93396226 7.13632653,8.97169811 7.22265306,9.02830189 L10.3112245,11.1886792 C10.5414286,11.3301887 10.81,11.4150943 11.0977551,11.4150943 C11.2704082,11.4150943 11.4334694,11.3867925 11.5869388,11.3301887 L26.0897959,4.98113208 C23.4904082,1.97169811 19.212449,0 14.3589796,0 C6.42653061,5.36258668e-15 0,5.26415094 0,11.7641509 C0,15.3113208 1.93755102,18.5 4.95897959,20.6603774 C5.19877551,20.8301887 5.36183673,21.1132075 5.36183673,21.4245283 C5.36183673,21.5283019 5.34265306,21.6226415 5.31387755,21.7264151 C5.07408163,22.6132075 4.68081633,24.0377358 4.67122449,24.1037736 C4.64244898,24.2169811 4.5944898,24.3301887 4.5944898,24.4433962 C4.5944898,24.7075472 4.8055102,24.9150943 5.07408163,24.9150943 C5.17959184,24.9150943 5.26591837,24.8773585 5.3522449,24.8301887 L8.49836735,23.0471698 C8.73816327,22.9150943 8.98755102,22.8301887 9.25612245,22.8301887 C9.4,22.8301887 9.54387755,22.8490566 9.67816327,22.8962264 C11.1457143,23.3113208 12.7283673,23.5377358 14.3685714,23.5377358 C22.3010204,23.5377358 28.727551,18.2735849 28.727551,11.7735849 C28.727551,9.80188679 28.1328571,7.95283019 27.0969388,6.32075472 L10.5510204,15.6981132 L10.4455102,15.754717 Z" id="Shape" fill="#25C400" fill-rule="nonzero"></path>
            <text id="WeChat-Pay" font-family="OpenSans-Regular, Open Sans" font-size="14" font-weight="normal" letter-spacing="-0.4479999" fill="#323232">
                <tspan x="34" y="18">WeChat Pay</tspan>
            </text>
        </g>
    </g>
</svg>