<?xml version="1.0" encoding="UTF-8"?>
<svg width="90px" height="32px" viewBox="0 0 90 32" version="1.1" xmlns="http://www.w3.org/2000/svg" xmlns:xlink="http://www.w3.org/1999/xlink">
    <!-- Generator: Sketch 51.2 (57519) - http://www.bohemiancoding.com/sketch -->
    <title>Group 2</title>
    <desc>Created with Sketch.</desc>
    <defs></defs>
    <g id="Page-1" stroke="none" stroke-width="1" fill="none" fill-rule="evenodd">
        <g id="Group-2" fill-rule="nonzero">
            <path d="M8.18374393,17.4986821 C7.37033899,17.5763949 5.84637342,17.9045155 5.01426951,18.5780262 C2.51795781,20.5812889 4.01387493,24.2424242 9.06259524,24.2424242 C11.9983326,24.2424242 14.93407,22.5154736 17.2340426,19.7523526 C13.9523744,18.2758099 11.1755782,17.22237 8.18374393,17.4986821 Z" id="Shape" fill="#00ACEE"></path>
            <path d="M26.0157414,20.0971098 C30.5671307,21.6416185 31.5957447,21.7248555 31.5957447,21.7248555 L31.5957447,5.12369942 C31.5957447,2.29364162 29.3291528,0 26.5345998,0 L5.06114493,0 C2.26659188,0 0,2.29364162 0,5.12369942 L0,26.8763006 C0,29.7063584 2.26659188,32 5.06114493,32 L26.5345998,32 C29.3291528,32 31.5957447,29.7063584 31.5957447,26.8763006 L31.5957447,26.6635838 C31.5957447,26.6635838 23.3759356,23.1953757 19.2250685,21.1699422 C16.4396182,24.6381503 12.8531234,26.7468208 9.1209842,26.7468208 C2.8127586,26.7468208 0.67360562,21.1606936 3.65931702,17.4797688 C4.31471708,16.6751445 5.41615329,15.916763 7.13657846,15.4820809 C9.82189816,14.816185 14.1002041,15.8982659 18.1145295,17.2393064 C18.833649,15.8890173 19.4435352,14.4092486 19.8986741,12.8369942 L7.53710072,12.8369942 L7.53710072,11.5699422 L13.9090458,11.5699422 L13.9090458,9.29479769 L6.19899226,9.29479769 L6.19899226,8.02774566 L13.9181485,8.02774566 L13.9181485,4.78150289 C13.9181485,4.78150289 13.9181485,4.23583815 14.4643153,4.23583815 L17.5683628,4.23583815 L17.5683628,8.02774566 L25.1964913,8.02774566 L25.1964913,9.29479769 L17.5683628,9.29479769 L17.5683628,11.5699422 L23.7946634,11.5699422 C23.2029828,14.0393064 22.2927049,16.3236994 21.1548576,18.3213873 C23.0482355,19.0057803 24.7504551,19.6624277 26.0157414,20.0971098 Z" id="Shape" fill="#00ACEE"></path>
            <path d="M76.9077723,4.925985 L85.8491898,4.925985 L85.8491898,6.78787879 L89.0425532,6.78787879 L89.0425532,4.58574045 C89.0425532,4.57628921 89.0425532,4.57628921 89.0425532,4.57628921 C89.0425532,4.08482486 88.6737422,3.67842164 88.2149773,3.66897041 L83.0516235,3.66897041 L83.0516235,1.93939394 L79.7143339,1.93939394 L79.7143339,3.66897041 L73.7234043,3.66897041 L73.7234043,6.78787879 L76.9167677,6.78787879 L76.9167677,4.925985 L76.9077723,4.925985 Z" id="Shape" fill="#3C3736"></path>
            <polygon id="Shape" fill="#3C3736" points="58.044702 1.93939394 54.5744681 9.90696777 57.2343452 9.90696777 57.2343452 19.3939394 60.1420962 19.3939394 60.1420962 6.81258444 59.0838655 6.81258444 61.2765957 1.93939394"></polygon>
            <path d="M90,19.3653956 L88.954714,15.778389 C88.8893837,15.5500384 88.6840596,15.3882901 88.441404,15.3882901 L85.6881954,15.3882901 L86.4908257,18.1380113 L83.2523058,18.1380113 L83.2523058,12.8098318 L89.6173507,12.8098318 L89.6173507,11.5443891 L83.2523058,11.5443891 L83.2523058,9.03253302 L89.6173507,9.03253302 L89.6173507,7.75757576 L73.7234043,7.75757576 L73.7234043,9.02301841 L80.0884492,9.02301841 L80.0884492,11.5348745 L73.7234043,11.5348745 L73.7234043,12.8003172 L80.0884492,12.8003172 L80.0884492,18.1284967 L73.7234043,18.1284967 L73.7234043,19.3939394 L90,19.3939394 L89.9906671,19.3463664 L90,19.3653956 Z" id="Shape" fill="#3C3736"></path>
            <path d="M64.2928299,9.08641975 C64.1821424,8.87093154 63.9699914,8.72727273 63.7117206,8.72727273 L61.2765957,8.72727273 L63.176731,14.5454545 L66.0638298,14.5454545 L64.2928299,9.08641975 Z" id="Shape" fill="#3C3736"></path>
            <path d="M70.5931998,1.93939394 L67.6297111,1.93939394 L67.6297111,5.07420379 L60.3191489,5.07420379 L60.3191489,6.33381016 L67.6297111,6.33381016 L67.6297111,17.6134432 C67.6016654,17.8691527 67.405346,18.0775087 67.1529353,18.0869794 L65.6478195,18.0869794 L65.6478195,19.3939394 L69.4900715,19.3939394 C70.0977269,19.3655272 70.5838513,18.8541081 70.6025483,18.2195695 L70.6025483,6.34328088 L71.8085106,6.34328088 L71.8085106,5.08367451 L70.6025483,5.08367451 L70.6025483,1.93939394 L70.5931998,1.93939394 Z" id="Shape" fill="#3C3736"></path>
            <path d="M52.5695176,7.66085793 L47.1171266,7.66085793 L47.1171266,5.68418733 L53.4379608,5.68418733 L53.4379608,4.45103503 L47.1171266,4.45103503 L47.1171266,1.93939394 L44.2969244,1.93939394 C43.9835686,1.93939394 43.7418369,2.20234553 43.7418369,2.5287682 L43.7418369,4.45103503 L37.4657679,4.45103503 L37.4657679,5.68418733 L43.7418369,5.68418733 L43.7418369,7.66085793 L38.4416474,7.66085793 L38.4416474,8.89401023 L48.9972614,8.89401023 C48.9972614,8.89401023 48.4153149,11.2061708 45.5145355,13.69061 C42.9181588,11.7048721 42.0497156,10.1180952 42.0497156,10.1180952 L39.2116073,10.1180952 C40.3575943,12.131035 41.9870444,13.7359465 43.7418369,15.0144353 C42.1302928,16.0753089 40.0442385,17.0999134 37.3404255,17.9159701 L37.3404255,19.3939394 C37.3404255,19.3939394 41.5035812,18.5960173 45.5324415,16.1931838 C49.5613019,18.5778827 53.6170213,19.3939394 53.6170213,19.3939394 L53.6170213,17.9975758 C51.0295976,17.0364423 48.9704024,15.984636 47.3588582,14.9690988 C49.6955972,13.2191106 51.7458395,10.8434789 52.5695176,7.66085793 Z" id="Shape" fill="#3C3736"></path>
            <path d="M44.0163407,28.4992712 L44.5281746,30.0606061 L45.9574468,30.0606061 L43.1471887,22.3030303 L42.05592,22.3030303 L39.2553191,30.0606061 L40.6845913,30.0606061 L41.2157398,28.4992712 L44.0163407,28.4992712 Z M42.6353547,24.3062524 L43.6879944,27.5172996 L41.5440861,27.5172996 L42.6353547,24.3062524 Z" id="Shape" fill="#3C3736"></path>
            <polygon id="Shape" fill="#3C3736" points="49.787234 22.3030303 49.787234 30.0606061 54.5744681 30.0606061 54.5744681 29.0000767 51.2093831 29.0000767 51.2093831 22.3030303"></polygon>
            <polygon id="Shape" fill="#3C3736" points="58.4042553 22.3030303 59.3617021 22.3030303 59.3617021 30.0606061 58.4042553 30.0606061"></polygon>
            <path d="M67.6984127,22.3030303 L65.106383,22.3030303 L65.106383,30.0606061 L66.3053023,30.0606061 L66.3053023,27.0754124 L67.6984127,27.0754124 C68.990206,27.0754124 69.893617,26.0934407 69.893617,24.6892213 C69.893617,23.2850019 68.990206,22.3030303 67.6984127,22.3030303 Z M67.630868,26.014883 L66.3053023,26.014883 L66.3053023,23.3635596 L67.630868,23.3635596 C68.2978723,23.3635596 68.6946977,24.0411201 68.6946977,24.699041 C68.6946977,25.3373226 68.3232016,26.014883 67.630868,26.014883 Z" id="Shape" fill="#3C3736"></path>
            <path d="M78.4844258,28.4992712 L78.9962597,30.0606061 L80.4255319,30.0606061 L77.6152738,22.3030303 L76.5240052,22.3030303 L73.7234043,30.0606061 L75.1526764,30.0606061 L75.6838249,28.4992712 L78.4844258,28.4992712 Z M77.1034398,24.3062524 L78.1560795,27.5172996 L76.0121712,27.5172996 L77.1034398,24.3062524 Z" id="Shape" fill="#3C3736"></path>
            <polygon id="Shape" fill="#3C3736" points="87.622624 22.31285 86.1841336 25.6122746 84.7270821 22.31285 83.2978723 22.31285 85.5159317 26.879018 85.5159317 30.0606061 86.8244939 30.0606061 86.8244939 26.879018 86.8337744 26.8593786 89.0425532 22.3030303 87.622624 22.3030303"></polygon>
        </g>
    </g>
</svg>