<?xml version="1.0" encoding="UTF-8"?>
<svg width="90px" height="23px" viewBox="0 0 90 23" version="1.1" xmlns="http://www.w3.org/2000/svg" xmlns:xlink="http://www.w3.org/1999/xlink">
    <!-- Generator: Sketch 51.2 (57519) - http://www.bohemiancoding.com/sketch -->
    <title>PayPal</title>
    <desc>Created with Sketch.</desc>
    <defs></defs>
    <g id="Page-1" stroke="none" stroke-width="1" fill="none" fill-rule="evenodd">
        <g id="PayPal" fill-rule="nonzero">
            <path d="M33.5402419,5.00732258 L28.5764516,5.00732258 C28.2367742,5.00732258 27.9479032,5.25958065 27.8949194,5.60235484 L25.8873387,18.6136774 C25.8474194,18.8703871 26.0419355,19.101871 26.2966935,19.101871 L28.6664516,19.101871 C29.006129,19.101871 29.295,18.8496129 29.3479839,18.5060968 L29.8894355,14.9967419 C29.9416935,14.6532258 30.2312903,14.4009677 30.5702419,14.4009677 L32.1416129,14.4009677 C35.411371,14.4009677 37.2984677,12.7835484 37.7912903,9.5783871 C38.0133871,8.17612903 37.8007258,7.07435484 37.1583871,6.30274194 C36.4529032,5.45545161 35.2016129,5.00732258 33.5402419,5.00732258 Z M34.1129032,9.75941935 C33.8414516,11.580129 32.4805645,11.580129 31.1646774,11.580129 L30.4156452,11.580129 L30.941129,8.17983871 C30.9723387,7.97432258 31.1465323,7.82296774 31.3497581,7.82296774 L31.6930645,7.82296774 C32.5894355,7.82296774 33.435,7.82296774 33.8719355,8.34529032 C34.1325,8.65690323 34.2123387,9.11987097 34.1129032,9.75941935 Z" id="Shape" fill="#253B80"></path>
            <path d="M48.3779032,9.70080645 L46.0008871,9.70080645 C45.7983871,9.70080645 45.6234677,9.85216129 45.5922581,10.0576774 L45.4870161,10.7372903 L45.3208065,10.4909677 C44.8062097,9.72751613 43.6587097,9.47229032 42.5133871,9.47229032 C39.8866935,9.47229032 37.6432258,11.5059355 37.2062903,14.3586774 C36.9791129,15.7817097 37.3020968,17.1424194 38.0917742,18.0913548 C38.816129,18.963871 39.8525806,19.3274194 41.0857258,19.3274194 C43.2021774,19.3274194 44.3758065,17.9362903 44.3758065,17.9362903 L44.2698387,18.6114516 C44.2299194,18.8696452 44.4244355,19.101129 44.6777419,19.101129 L46.818871,19.101129 C47.1592742,19.101129 47.4466935,18.848871 47.5004032,18.5053548 L48.7850806,10.189 C48.8257258,9.93303226 48.6319355,9.70080645 48.3779032,9.70080645 Z M45.0645968,14.4299032 C44.8352419,15.8180645 43.7574194,16.7499355 42.3827419,16.7499355 C41.6925,16.7499355 41.1408871,16.5236452 40.7866935,16.0948065 C40.4354032,15.6689355 40.3018548,15.0627742 40.413629,14.3876129 C40.6277419,13.0113226 41.7237097,12.0490323 43.0773387,12.0490323 C43.7523387,12.0490323 44.3010484,12.2782903 44.6625,12.7108387 C45.0246774,13.1478387 45.1683871,13.7577097 45.0645968,14.4299032 Z" id="Shape" fill="#253B80"></path>
            <path d="M61.0374194,9.70080645 L58.6487903,9.70080645 C58.4208871,9.70080645 58.2067742,9.81654839 58.0775806,10.0101935 L54.7831452,14.9707742 L53.3866935,10.2038387 C53.298871,9.90558065 53.0295968,9.70080645 52.7247581,9.70080645 L50.3775,9.70080645 C50.0922581,9.70080645 49.8941129,9.98570968 49.9848387,10.2602258 L52.6158871,18.1529355 L50.1423387,21.7223871 C49.9478226,22.0035806 50.1437903,22.390129 50.4798387,22.390129 L52.8655645,22.390129 C53.0920161,22.390129 53.3039516,22.2773548 53.4324194,22.0874194 L61.3770968,10.3648387 C61.5672581,10.0843871 61.3720161,9.70080645 61.0374194,9.70080645 Z" id="Shape" fill="#253B80"></path>
            <path d="M68.9458065,5.00732258 L63.9812903,5.00732258 C63.6423387,5.00732258 63.3534677,5.25958065 63.3004839,5.60235484 L61.2929032,18.6136774 C61.2529839,18.8703871 61.4475,19.101871 61.7008065,19.101871 L64.2483871,19.101871 C64.485,19.101871 64.6875,18.9252903 64.7245161,18.6849032 L65.2942742,14.9967419 C65.3465323,14.6532258 65.636129,14.4009677 65.9750806,14.4009677 L67.5457258,14.4009677 C70.8162097,14.4009677 72.7025806,12.7835484 73.196129,9.5783871 C73.4189516,8.17612903 73.2048387,7.07435484 72.5625,6.30274194 C71.8577419,5.45545161 70.6071774,5.00732258 68.9458065,5.00732258 Z M69.5184677,9.75941935 C69.2477419,11.580129 67.8868548,11.580129 66.5702419,11.580129 L65.8219355,11.580129 L66.3481452,8.17983871 C66.3793548,7.97432258 66.5520968,7.82296774 66.7560484,7.82296774 L67.0993548,7.82296774 C67.995,7.82296774 68.8412903,7.82296774 69.2782258,8.34529032 C69.5387903,8.65690323 69.6179032,9.11987097 69.5184677,9.75941935 Z" id="Shape" fill="#179BD7"></path>
            <path d="M83.7827419,9.70080645 L81.4071774,9.70080645 C81.2032258,9.70080645 81.0297581,9.85216129 80.9992742,10.0576774 L80.8940323,10.7372903 L80.7270968,10.4909677 C80.2125,9.72751613 79.0657258,9.47229032 77.9204032,9.47229032 C75.2937097,9.47229032 73.0509677,11.5059355 72.6140323,14.3586774 C72.3875806,15.7817097 72.7091129,17.1424194 73.4987903,18.0913548 C74.2245968,18.963871 75.2595968,19.3274194 76.4927419,19.3274194 C78.6091935,19.3274194 79.7828226,17.9362903 79.7828226,17.9362903 L79.6768548,18.6114516 C79.6369355,18.8696452 79.8314516,19.101129 80.0862097,19.101129 L82.2266129,19.101129 C82.5655645,19.101129 82.8544355,18.848871 82.9074194,18.5053548 L84.1928226,10.189 C84.2320161,9.93303226 84.0375,9.70080645 83.7827419,9.70080645 Z M80.4694355,14.4299032 C80.2415323,15.8180645 79.1622581,16.7499355 77.7875806,16.7499355 C77.0987903,16.7499355 76.5457258,16.5236452 76.1915323,16.0948065 C75.8402419,15.6689355 75.7081452,15.0627742 75.8184677,14.3876129 C76.0340323,13.0113226 77.1285484,12.0490323 78.4821774,12.0490323 C79.1571774,12.0490323 79.7058871,12.2782903 80.0673387,12.7108387 C80.4309677,13.1478387 80.5746774,13.7577097 80.4694355,14.4299032 Z" id="Shape" fill="#179BD7"></path>
            <path d="M86.5850806,5.36419355 L84.5477419,18.6136774 C84.5078226,18.8703871 84.7023387,19.101871 84.9556452,19.101871 L87.003871,19.101871 C87.3442742,19.101871 87.6331452,18.8496129 87.6854032,18.5060968 L89.6944355,5.49551613 C89.7343548,5.23880645 89.5398387,5.00658065 89.2865323,5.00658065 L86.9929839,5.00658065 C86.7904839,5.00732258 86.6162903,5.15867742 86.5850806,5.36419355 Z" id="Shape" fill="#179BD7"></path>
            <path d="M5.27370968,21.6303871 L5.65330645,19.1656774 L4.80774194,19.1456452 L0.770080645,19.1456452 L3.57604839,0.958580645 C3.58475806,0.903677419 3.61306452,0.852483871 3.65443548,0.816129032 C3.69580645,0.779774194 3.74879032,0.759741935 3.80395161,0.759741935 L10.6120161,0.759741935 C12.8721774,0.759741935 14.4319355,1.24051613 15.2462903,2.18945161 C15.6280645,2.6346129 15.8712097,3.09980645 15.9887903,3.61174194 C16.1121774,4.14890323 16.1143548,4.79067742 15.993871,5.57341935 L15.9851613,5.63054839 L15.9851613,6.13209677 L16.3669355,6.35319355 C16.6884677,6.52754839 16.9439516,6.72712903 17.1399194,6.95564516 C17.4665323,7.33625806 17.6777419,7.82 17.7670161,8.39351613 C17.8591935,8.98335484 17.8287097,9.68522581 17.6777419,10.4798387 C17.5035484,11.3939032 17.2219355,12.19 16.8416129,12.8414194 C16.4917742,13.4416452 16.046129,13.9394839 15.5170161,14.3252903 C15.0118548,14.6918065 14.4116129,14.9700323 13.7329839,15.1480968 C13.0754032,15.3231935 12.3256452,15.4114839 11.5033065,15.4114839 L10.9734677,15.4114839 C10.5945968,15.4114839 10.2266129,15.5509677 9.93774194,15.801 C9.64814516,16.0562258 9.45653226,16.4049355 9.39774194,16.7862903 L9.35782258,17.008129 L8.68717742,21.3521613 L8.65669355,21.5116774 C8.64870968,21.562129 8.63491935,21.5873548 8.61459677,21.6044194 C8.59645161,21.62 8.57032258,21.6303871 8.54491935,21.6303871 L5.27370968,21.6303871 Z" id="Shape" fill="#253B80"></path>
            <path d="M16.7283871,5.68841935 C16.7080645,5.82122581 16.6848387,5.957 16.6587097,6.09648387 C15.7608871,10.8085161 12.6892742,12.4363226 8.76629032,12.4363226 L6.76887097,12.4363226 C6.2891129,12.4363226 5.88483871,12.7924516 5.81008065,13.2761935 L4.78741935,19.906129 L4.49782258,21.7854516 C4.44919355,22.103 4.68870968,22.3893871 5.00225806,22.3893871 L8.54491935,22.3893871 C8.96443548,22.3893871 9.32080645,22.0777742 9.38685484,21.654871 L9.42169355,21.470871 L10.0887097,17.1439032 L10.1315323,16.9064839 C10.1968548,16.4820968 10.5539516,16.1704839 10.9734677,16.1704839 L11.5033065,16.1704839 C14.9356452,16.1704839 17.6225806,14.7459677 18.4079032,10.6237742 C18.7359677,8.90174194 18.566129,7.46387097 17.6980645,6.4526129 C17.4353226,6.14767742 17.1094355,5.89467742 16.7283871,5.68841935 Z" id="Shape" fill="#179BD7"></path>
            <path d="M15.7891935,5.30558065 C15.6520161,5.26477419 15.5104839,5.22767742 15.3653226,5.19429032 C15.2194355,5.16164516 15.0699194,5.13270968 14.9160484,5.10748387 C14.3775,5.01845161 13.7874194,4.97616129 13.1552419,4.97616129 L7.8191129,4.97616129 C7.68774194,4.97616129 7.56290323,5.00658065 7.45112903,5.06148387 C7.20508065,5.18241935 7.02217742,5.42058065 6.97790323,5.71216129 L5.84274194,13.0617742 L5.81008065,13.2761935 C5.88483871,12.7924516 6.2891129,12.4363226 6.76887097,12.4363226 L8.76629032,12.4363226 C12.6892742,12.4363226 15.7608871,10.8077742 16.6587097,6.09648387 C16.6855645,5.957 16.7080645,5.82122581 16.7283871,5.68841935 C16.5012097,5.56525806 16.2551613,5.45990323 15.9902419,5.37012903 C15.9249194,5.34787097 15.8574194,5.32635484 15.7891935,5.30558065 Z" id="Shape" fill="#222D65"></path>
            <path d="M6.97790323,5.71216129 C7.02217742,5.42058065 7.20508065,5.18241935 7.45112903,5.06222581 C7.56362903,5.00732258 7.68774194,4.97690323 7.8191129,4.97690323 L13.1552419,4.97690323 C13.7874194,4.97690323 14.3775,5.01919355 14.9160484,5.10822581 C15.0699194,5.13345161 15.2194355,5.1623871 15.3653226,5.19503226 C15.5104839,5.22841935 15.6520161,5.26551613 15.7891935,5.30632258 C15.8574194,5.32709677 15.9249194,5.3486129 15.9909677,5.37012903 C16.2558871,5.45990323 16.5019355,5.566 16.7291129,5.68841935 C16.9962097,3.94709677 16.7269355,2.76148387 15.8058871,1.68790323 C14.7904839,0.506 12.9578226,0 10.6127419,0 L3.80467742,0 C3.32564516,0 2.91701613,0.356129032 2.84298387,0.840612903 L0.00725806452,19.2146452 C-0.0486290323,19.5781935 0.225725806,19.906129 0.584274194,19.906129 L4.78741935,19.906129 L5.84274194,13.0617742 L6.97790323,5.71216129 Z" id="Shape" fill="#253B80"></path>
        </g>
    </g>
</svg>